<svg width="90" height="90" viewBox="0 0 90 90" fill="none" xmlns="http://www.w3.org/2000/svg">
<circle cx="45" cy="45" r="43.5" fill="white" stroke="#018D37" stroke-width="3"/>
<path d="M62.5379 54.0078C61.3253 52.7861 58.3885 51.0032 56.9637 50.2847C55.1081 49.3502 54.9554 49.2738 53.497 50.3573C52.5241 51.0803 51.8774 51.7263 50.7389 51.4835C49.6003 51.2407 47.1263 49.8717 44.96 47.7124C42.7937 45.5531 41.3451 43.0074 41.1015 41.8728C40.858 40.7382 41.5146 40.0991 42.2309 39.124C43.2404 37.7497 43.164 37.5206 42.3011 35.6652C41.6284 34.2221 39.7935 31.313 38.5672 30.1066C37.2553 28.8109 37.2553 29.0399 36.41 29.3912C35.7219 29.6807 35.0616 30.0326 34.4377 30.4426C33.2159 31.2542 32.5378 31.9284 32.0637 32.9416C31.5895 33.9549 31.3764 36.3302 33.8253 40.7786C36.2741 45.227 37.9922 47.5016 41.5482 51.0475C45.1043 54.5934 47.8387 56.5 51.8361 58.7417C56.7812 61.5111 58.6779 60.9713 59.6943 60.4979C60.7106 60.0245 61.3879 59.3526 62.2011 58.1309C62.6122 57.508 62.9649 56.8486 63.2549 56.1609C63.6069 55.3188 63.836 55.3188 62.5379 54.0078Z" fill="#018D37" stroke="#018D37" stroke-width="2" stroke-miterlimit="10"/>
</svg>
