<svg width="45" height="60" viewBox="0 0 45 60" fill="none" xmlns="http://www.w3.org/2000/svg">
<path d="M44.173 19.7378V19.4593V4.64862C44.173 2.4664 42.4516 0.691406 40.3372 0.691406H38.4426C36.4784 0.691406 34.839 2.21278 34.6247 4.23609L34.6129 4.35221H29.8264C29.3532 4.35221 28.8997 4.53616 28.5585 4.86293L7.33916 25.2842C6.92481 25.62 6.65875 26.1325 6.65875 26.7074V28.4449C5.12915 29.0195 4.03201 30.4856 4.03201 32.2145V44.6109C4.03201 45.6216 4.84993 46.4395 5.86058 46.4395H11.2284C12.239 46.4395 13.0569 45.6216 13.0569 44.6109V32.2147C13.0569 30.4439 11.9047 28.9531 10.3159 28.4098V27.4952L30.564 8.00935H34.2417L33.3948 16.3522C30.6048 17.1802 28.3868 19.0678 27.5891 21.504L24.4771 30.9925C24.4052 31.1313 24.3661 31.2808 24.3313 31.4376C21.7968 40.9203 18.5927 44.1533 21.3409 48.5327C22.5898 50.526 24.8274 51.9907 27.4417 52.5769C28.16 56.3244 31.4533 59.1684 35.407 59.1684C39.8837 59.1684 43.5266 55.5255 43.5266 51.0488C43.5266 50.1636 43.3485 49.3263 43.0855 48.5277C43.7917 47.4094 44.173 46.1705 44.173 44.8845V19.7378ZM9.39978 42.7826H7.68915V32.2147C7.68915 32.0057 7.85884 31.8344 8.06767 31.8344H9.01944C9.22844 31.8344 9.39978 32.0059 9.39978 32.2147V42.7826ZM27.4534 33.6521H40.516V37.3093H26.2545L27.4534 33.6521ZM38.4426 4.34855H40.3372C40.4103 4.34855 40.5158 4.46466 40.5158 4.64862V15.9258C40.376 15.9135 40.2405 15.8896 40.0962 15.8896H37.1184L38.0782 6.43019C38.0904 6.34498 38.1285 6.2691 38.1285 6.18059C38.1285 6.15134 38.1133 6.12702 38.112 6.09831L38.2625 4.61461C38.2802 4.4504 38.3803 4.34855 38.4426 4.34855ZM31.0641 22.6432C31.6517 20.8487 33.9606 19.5467 36.5552 19.5467H40.0962C40.2981 19.5467 40.439 19.5966 40.5158 19.6378V19.7378V29.995H28.653L31.0641 22.6432ZM24.0801 43.9379L25.0547 40.9664H40.5158V44.7901C39.1159 43.6451 37.3522 42.929 35.407 42.929C31.7003 42.929 28.5998 45.4411 27.6308 48.8415C25.3299 48.1286 23.3393 46.2035 24.0801 43.9379ZM35.407 55.5111C32.9463 55.5111 30.9446 53.5093 30.9446 51.0486C30.9446 48.5879 32.9463 46.5862 35.407 46.5862C37.8677 46.5862 39.8694 48.5879 39.8694 51.0486C39.8694 53.5093 37.8677 55.5111 35.407 55.5111ZM5.40344 48.7717L4.39809 50.2985C3.84275 51.1413 4.07663 52.2754 4.9196 52.8307C5.75946 53.3842 6.89372 53.1564 7.4518 52.3092L8.45715 50.7824C9.01249 49.9396 8.77861 48.8055 7.93564 48.2502C7.0945 47.6968 5.9606 47.9289 5.40344 48.7717ZM1.38369 54.8824L0.378339 56.4093C-0.176998 57.252 0.0568768 58.3861 0.899848 58.9415C1.73971 59.495 2.87397 59.2671 3.43205 58.42L4.4374 56.8931C4.99274 56.0503 4.75887 54.9162 3.91589 54.3609C3.07475 53.8076 1.93903 54.0414 1.38369 54.8824ZM14.2748 58.4004C14.7813 59.2723 15.8993 59.569 16.7748 59.0611C17.6479 58.5522 17.9427 57.4344 17.4354 56.561L17.0622 55.9199C16.5552 55.045 15.4337 54.752 14.5622 55.2593C13.6891 55.7682 13.3943 56.886 13.9015 57.7593L14.2748 58.4004Z" fill="white"/>
</svg>
