<svg width="65" height="64" viewBox="0 0 65 64" fill="none" xmlns="http://www.w3.org/2000/svg">
<path d="M38.8615 33.5384H33.9267C33.9298 33.4938 33.9527 33.4554 33.9527 33.4098V29.8277C33.9527 29.8174 33.9469 29.8088 33.9469 29.7991H35.7295C36.6528 29.7991 37.4295 29.1116 37.5438 28.1973L40.1046 7.65441C40.5394 3.85427 36.2596 1.48828 32.1241 1.48828C27.9908 1.48828 23.7129 3.8731 24.1455 7.65441L24.1474 7.65971C24.1477 7.66465 24.147 7.66904 24.1474 7.67397L26.7063 28.1971C26.8205 29.1114 27.5973 29.799 28.5206 29.799H30.3014C30.3014 29.8088 30.2956 29.8172 30.2956 29.8275V33.4097C30.2956 33.4552 30.3184 33.4936 30.3215 33.5382H25.3884C23.076 33.5382 21.1938 35.3971 21.1938 37.6828V53.9043C21.1938 54.4828 21.467 55.0257 21.9295 55.3704L31.0312 62.1489C31.3561 62.39 31.7401 62.5114 32.1241 62.5114C32.5081 62.5114 32.8919 62.39 33.2171 62.1489L42.3206 55.3704C42.7831 55.0257 43.0562 54.4828 43.0562 53.9043V37.6828C43.0561 35.3973 41.1739 33.5384 38.8615 33.5384ZM27.7776 7.24024C27.6619 6.21422 29.8964 5.14561 32.1241 5.14561C33.7848 5.14561 36.6038 6.02954 36.4719 7.23804L34.1153 26.142H30.1348L27.7776 7.24024ZM39.3989 52.9867L32.124 58.4027L24.8508 52.9867V37.6832C24.8508 37.4135 25.0918 37.1957 25.3882 37.1957H38.8615C39.1579 37.1957 39.3989 37.4135 39.3989 37.6832V52.9867Z" fill="#2DA884"/>
</svg>
