<svg width="64" height="64" viewBox="0 0 64 64" fill="none" xmlns="http://www.w3.org/2000/svg">
<path d="M33.7303 18.3043C33.7303 15.3846 31.2981 13.0078 28.3071 13.0078C25.3177 13.0078 22.8857 15.3846 22.8857 18.3043C22.8856 25.3125 33.7303 25.309 33.7303 18.3043ZM28.3071 19.9436C27.3339 19.9436 26.5429 19.2079 26.5429 18.3043C26.5429 17.4006 27.3339 16.665 28.3071 16.665C29.2803 16.665 30.0731 17.4006 30.0731 18.3043C30.0731 19.2079 29.2803 19.9436 28.3071 19.9436Z" fill="#2DA884"/>
<path d="M2.77856 59.5509C2.77856 60.5615 3.59648 61.3794 4.60714 61.3794H59.3928C60.4034 61.3794 61.2214 60.5615 61.2214 59.5509C61.2214 58.5402 60.4034 57.7223 59.3928 57.7223H49.8551C49.8816 57.5978 49.9303 57.4817 49.9303 57.3491C49.9303 53.3206 46.7749 50.0438 42.8982 50.0438C41.8678 50.0438 40.875 50.2705 39.9642 50.7062C37.8963 49.167 35.0803 48.7813 32.7375 49.6885C32.5464 49.4186 32.3327 49.1702 32.1085 48.9327C32.1593 48.7912 32.2191 48.6528 32.2339 48.4975C32.2376 48.4833 32.2392 48.4672 32.2411 48.4511C32.4197 47.4689 32.5803 46.4868 32.7072 45.5208C32.7339 45.4208 32.7536 45.3207 32.7644 45.2191C32.7734 45.1708 32.7947 45.0691 32.8 45.0459C32.8108 44.987 32.818 44.9137 32.8233 44.8406C32.8344 44.7628 32.8421 44.6844 32.8529 44.6063C34.0718 44.9964 35.3174 45.1869 36.5501 45.1869C41.2643 45.1851 45.7716 42.4548 47.7786 37.8905C47.975 37.4458 47.9858 36.9422 47.809 36.4906C47.6321 36.0389 47.284 35.6745 46.8393 35.4799C42.1792 33.4398 37.0281 34.4729 33.5732 37.7389C33.7023 35.8434 33.7701 33.9425 33.7838 32.0402C34.0329 31.7098 34.2177 31.3697 34.3445 31.0423C38.6259 33.1083 45.0398 27.799 43.2213 23.7566C47.759 22.2912 47.7578 14.4771 43.2176 13.0174C45.0396 9.00641 38.6753 3.63114 34.3445 5.72449C32.735 1.58497 23.877 1.58369 22.2624 5.72266C17.9462 3.63882 11.5762 9.00988 13.3965 13.017C8.85655 14.4768 8.85363 22.2948 13.3947 23.7562C11.5138 27.9374 18.0983 33.0501 22.2625 31.0438C22.8089 32.4509 24.3036 34.1063 28.3073 34.1063C28.9782 34.1063 29.5551 34.0458 30.0925 33.9617C29.9917 37.4442 29.6961 40.9433 29.1912 44.401C29.1875 44.4224 29.1841 44.4474 29.1822 44.4759C29.168 44.5403 29.1519 44.6206 29.1394 44.7135C29.118 44.7903 29.1038 44.8671 29.093 44.9457C29.0078 45.6159 28.8867 46.2998 28.7712 46.9814C28.2665 46.8595 27.7439 46.7922 27.2092 46.7922C24.0216 46.7922 21.3342 49.0583 20.5664 52.119C17.7736 52.3798 15.5146 54.7262 15.3217 57.6726C15.3206 57.6899 15.329 57.7051 15.3284 57.7225H4.6075C3.59648 57.7223 2.77856 58.5402 2.77856 59.5509ZM43.3571 38.2188C41.4322 40.6902 38.2642 41.9258 35.166 41.4151C37.1001 38.8973 40.25 37.6848 43.3571 38.2188ZM25.1393 24.8652C22.7698 23.6887 22.0064 27.8903 20.0767 27.8903C18.7204 27.8903 16.7088 25.958 16.7088 25.3313C16.7088 24.8577 19.1134 23.5851 19.5356 23.3671C21.415 22.3963 20.399 19.5154 18.3196 19.9528C14.8577 20.6806 13.6785 20.7678 13.6785 18.3831C13.6785 16.0488 14.7372 16.083 18.3125 16.8153C19.1911 16.994 20.0964 16.4975 20.4018 15.6385C20.709 14.7812 20.3374 13.8278 19.5303 13.4045C19.1249 13.1922 16.7088 11.8977 16.7088 11.4384C16.7088 10.7743 19.4469 7.91 21.0749 9.28124C22.5569 10.5366 23.233 12.8493 25.1393 11.9027C27.07 10.948 25.6143 9.09162 25.6143 7.34735C25.6143 5.96129 30.991 5.9558 30.991 7.34735C30.991 9.05724 29.5624 10.967 31.4804 11.9045C33.8727 13.0845 34.6014 8.87585 36.534 8.87585C37.8899 8.87585 39.9055 10.8072 39.9055 11.4384C39.9055 11.903 37.4929 13.1878 37.0806 13.4027C35.2128 14.3778 36.2239 17.2326 38.2949 16.8151C41.741 16.1084 42.936 15.9969 42.936 18.383C42.936 23.0467 37.4068 17.7969 36.2056 21.124C35.267 23.7388 39.9055 24.1501 39.9055 25.3312C39.9055 25.9628 37.8941 27.8901 36.534 27.8901C35.5193 27.8901 34.4132 26.3164 33.7732 25.4365C32.5808 23.7932 29.9846 25.0508 30.5339 27.0061C30.8715 28.2044 30.991 29.0561 30.991 29.4204C30.991 30.3489 29.1142 30.449 28.3071 30.449C22.445 30.4492 28.3477 26.4477 25.1393 24.8652ZM21.0859 55.7509C21.2769 55.7509 21.4501 55.776 21.5913 55.8241C22.1894 56.0294 22.8609 55.942 23.3502 55.5382C23.8395 55.1345 24.0895 54.54 24.0019 53.9116C24.0019 52.0027 25.4411 50.449 27.209 50.449C28.5715 50.449 29.7858 51.3775 30.2304 52.7614C30.4125 53.3275 30.859 53.7686 31.4268 53.947C31.9982 54.1257 32.6143 54.013 33.084 53.6506C34.6859 52.422 37.0144 52.6667 38.4 54.2041C39.0446 54.9238 40.1429 55.0113 40.9001 54.4095C41.4805 53.9452 42.1715 53.7005 42.8983 53.7005C44.7591 53.7005 46.2733 55.3362 46.2733 57.3487C46.2733 57.4813 46.322 57.5974 46.3488 57.7219H19.0179C19.1796 56.6072 20.0403 55.7509 21.0859 55.7509Z" fill="#2DA884"/>
</svg>
