<svg width="65" height="64" viewBox="0 0 65 64" fill="none" xmlns="http://www.w3.org/2000/svg">
<path d="M61.1133 2.82437L54.5251 3.48319C53.7722 3.57731 53.2074 4.0479 53.0192 4.6126C51.7016 4.89495 50.5722 5.6479 49.631 6.58907L11.8898 48.942L2.57215 41.7891C2.19568 41.5067 1.53686 41.5067 1.2545 41.9773C0.972152 42.3538 1.06627 42.9185 1.44274 43.295C2.57215 44.2361 -2.69844 40.0008 12.6427 52.142C11.9839 53.0832 11.6074 54.2126 11.6074 55.4361C11.6074 58.6361 14.1486 61.1773 17.3486 61.1773C20.5486 61.1773 23.0898 58.6361 23.0898 55.4361C23.0898 54.1185 22.6192 52.895 21.8663 51.9538L52.6427 23.5302C55.1839 21.1773 55.1839 17.3185 52.831 14.8714L48.5957 10.6361L51.0427 7.90672C51.6074 7.2479 52.4545 6.77731 53.3016 6.49495C53.678 6.96554 54.1486 7.15378 54.7133 7.15378C54.9016 7.15378 54.1486 7.2479 61.4898 6.49495C62.5251 6.40084 63.278 5.45966 63.1839 4.42437C63.0898 3.48319 62.1486 2.73025 61.1133 2.82437ZM40.1251 32.6597L33.9133 27.1067L39.8427 20.4244L46.6192 26.542L40.1251 32.6597ZM31.5604 40.5655L26.0074 35.9538L32.6898 28.5185L38.7133 33.8832L31.5604 40.5655ZM24.5957 46.9655L19.7957 42.8244L24.6898 37.3655L30.1486 41.8832L24.5957 46.9655ZM17.3486 49.695C16.031 49.695 14.9016 50.1655 13.9604 50.8244L13.3016 50.1655L18.5722 44.2361L23.278 48.2832L20.6427 50.7303C19.7016 50.0714 18.5722 49.695 17.3486 49.695ZM17.3486 59.295C15.1839 59.295 13.4898 57.5067 13.4898 55.4361C13.4898 53.2714 15.278 51.5773 17.3486 51.5773C19.5133 51.5773 21.2074 53.3655 21.2074 55.4361C21.3016 57.6008 19.5133 59.295 17.3486 59.295ZM51.5133 16.095C53.2074 17.7891 53.1133 20.5185 51.4192 22.1185L48.031 25.3185L41.0663 19.1067L47.3722 12.0479L51.5133 16.095Z" fill="white"/>
</svg>
