<svg width="65" height="64" viewBox="0 0 65 64" fill="none" xmlns="http://www.w3.org/2000/svg">
<path d="M33.8553 18.3043C33.8553 15.3846 31.4231 13.0078 28.4321 13.0078C25.4427 13.0078 23.0107 15.3846 23.0107 18.3043C23.0106 25.3125 33.8553 25.309 33.8553 18.3043ZM28.4321 19.9436C27.4589 19.9436 26.6679 19.2079 26.6679 18.3043C26.6679 17.4006 27.4589 16.665 28.4321 16.665C29.4053 16.665 30.1981 17.4006 30.1981 18.3043C30.1981 19.2079 29.4053 19.9436 28.4321 19.9436Z" fill="white"/>
<path d="M2.90356 59.5509C2.90356 60.5615 3.72148 61.3794 4.73214 61.3794H59.5178C60.5284 61.3794 61.3464 60.5615 61.3464 59.5509C61.3464 58.5402 60.5284 57.7223 59.5178 57.7223H49.9801C50.0066 57.5978 50.0553 57.4817 50.0553 57.3491C50.0553 53.3206 46.8999 50.0438 43.0232 50.0438C41.9928 50.0438 41 50.2705 40.0892 50.7062C38.0213 49.167 35.2053 48.7813 32.8625 49.6885C32.6714 49.4186 32.4577 49.1702 32.2335 48.9327C32.2843 48.7912 32.3441 48.6528 32.3589 48.4975C32.3626 48.4833 32.3642 48.4672 32.3661 48.4511C32.5447 47.4689 32.7053 46.4868 32.8322 45.5208C32.8589 45.4208 32.8786 45.3207 32.8894 45.2191C32.8984 45.1708 32.9197 45.0691 32.925 45.0459C32.9358 44.987 32.943 44.9137 32.9483 44.8406C32.9594 44.7628 32.9671 44.6844 32.9779 44.6063C34.1968 44.9964 35.4424 45.1869 36.6751 45.1869C41.3893 45.1851 45.8966 42.4548 47.9036 37.8905C48.1 37.4458 48.1108 36.9422 47.934 36.4906C47.7571 36.0389 47.409 35.6745 46.9643 35.4799C42.3042 33.4398 37.1531 34.4729 33.6982 37.7389C33.8273 35.8434 33.8951 33.9425 33.9088 32.0402C34.1579 31.7098 34.3427 31.3697 34.4695 31.0423C38.7509 33.1083 45.1648 27.799 43.3463 23.7566C47.884 22.2912 47.8828 14.4771 43.3426 13.0174C45.1646 9.00641 38.8003 3.63114 34.4695 5.72449C32.86 1.58497 24.002 1.58369 22.3874 5.72266C18.0712 3.63882 11.7012 9.00988 13.5215 13.017C8.98155 14.4768 8.97863 22.2948 13.5197 23.7562C11.6388 27.9374 18.2233 33.0501 22.3875 31.0438C22.9339 32.4509 24.4286 34.1063 28.4323 34.1063C29.1032 34.1063 29.6801 34.0458 30.2175 33.9617C30.1167 37.4442 29.8211 40.9433 29.3162 44.401C29.3125 44.4224 29.3091 44.4474 29.3072 44.4759C29.293 44.5403 29.2769 44.6206 29.2644 44.7135C29.243 44.7903 29.2288 44.8671 29.218 44.9457C29.1328 45.6159 29.0117 46.2998 28.8962 46.9814C28.3915 46.8595 27.8689 46.7922 27.3342 46.7922C24.1466 46.7922 21.4592 49.0583 20.6914 52.119C17.8986 52.3798 15.6396 54.7262 15.4467 57.6726C15.4456 57.6899 15.454 57.7051 15.4534 57.7225H4.7325C3.72148 57.7223 2.90356 58.5402 2.90356 59.5509ZM43.4821 38.2188C41.5572 40.6902 38.3892 41.9258 35.291 41.4151C37.2251 38.8973 40.375 37.6848 43.4821 38.2188ZM25.2643 24.8652C22.8948 23.6887 22.1314 27.8903 20.2017 27.8903C18.8454 27.8903 16.8338 25.958 16.8338 25.3313C16.8338 24.8577 19.2384 23.5851 19.6606 23.3671C21.54 22.3963 20.524 19.5154 18.4446 19.9528C14.9827 20.6806 13.8035 20.7678 13.8035 18.3831C13.8035 16.0488 14.8622 16.083 18.4375 16.8153C19.3161 16.994 20.2214 16.4975 20.5268 15.6385C20.834 14.7812 20.4624 13.8278 19.6553 13.4045C19.2499 13.1922 16.8338 11.8977 16.8338 11.4384C16.8338 10.7743 19.5719 7.91 21.1999 9.28124C22.6819 10.5366 23.358 12.8493 25.2643 11.9027C27.195 10.948 25.7393 9.09162 25.7393 7.34735C25.7393 5.96129 31.116 5.9558 31.116 7.34735C31.116 9.05724 29.6874 10.967 31.6054 11.9045C33.9977 13.0845 34.7264 8.87585 36.659 8.87585C38.0149 8.87585 40.0305 10.8072 40.0305 11.4384C40.0305 11.903 37.6179 13.1878 37.2056 13.4027C35.3378 14.3778 36.3489 17.2326 38.4199 16.8151C41.866 16.1084 43.061 15.9969 43.061 18.383C43.061 23.0467 37.5318 17.7969 36.3306 21.124C35.392 23.7388 40.0305 24.1501 40.0305 25.3312C40.0305 25.9628 38.0191 27.8901 36.659 27.8901C35.6443 27.8901 34.5382 26.3164 33.8982 25.4365C32.7058 23.7932 30.1096 25.0508 30.6589 27.0061C30.9965 28.2044 31.116 29.0561 31.116 29.4204C31.116 30.3489 29.2392 30.449 28.4321 30.449C22.57 30.4492 28.4727 26.4477 25.2643 24.8652ZM21.2109 55.7509C21.4019 55.7509 21.5751 55.776 21.7163 55.8241C22.3144 56.0294 22.9859 55.942 23.4752 55.5382C23.9645 55.1345 24.2145 54.54 24.1269 53.9116C24.1269 52.0027 25.5661 50.449 27.334 50.449C28.6965 50.449 29.9108 51.3775 30.3554 52.7614C30.5375 53.3275 30.984 53.7686 31.5518 53.947C32.1232 54.1257 32.7393 54.013 33.209 53.6506C34.8109 52.422 37.1394 52.6667 38.525 54.2041C39.1696 54.9238 40.2679 55.0113 41.0251 54.4095C41.6055 53.9452 42.2965 53.7005 43.0233 53.7005C44.8841 53.7005 46.3983 55.3362 46.3983 57.3487C46.3983 57.4813 46.447 57.5974 46.4738 57.7219H19.1429C19.3046 56.6072 20.1653 55.7509 21.2109 55.7509Z" fill="white"/>
</svg>
