<svg width="23" height="62" viewBox="0 0 23 62" fill="none" xmlns="http://www.w3.org/2000/svg">
<path d="M17.8615 32.5384H12.9267C12.9298 32.4938 12.9527 32.4554 12.9527 32.4098V28.8277C12.9527 28.8174 12.9469 28.8088 12.9469 28.7991H14.7295C15.6528 28.7991 16.4295 28.1116 16.5438 27.1973L19.1046 6.65441C19.5394 2.85427 15.2596 0.488281 11.1241 0.488281C6.99083 0.488281 2.71289 2.8731 3.14553 6.65441L3.14735 6.65971C3.14772 6.66465 3.14699 6.66904 3.14735 6.67397L5.70626 27.1971C5.82054 28.1114 6.59732 28.799 7.52057 28.799H9.30141C9.30141 28.8088 9.29556 28.8172 9.29556 28.8275V32.4097C9.29556 32.4552 9.31842 32.4936 9.32153 32.5382H4.38841C2.076 32.5382 0.193848 34.3971 0.193848 36.6828V52.9043C0.193848 53.4828 0.467036 54.0257 0.929482 54.3704L10.0312 61.1489C10.3561 61.39 10.7401 61.5114 11.1241 61.5114C11.5081 61.5114 11.8919 61.39 12.2171 61.1489L21.3206 54.3704C21.7831 54.0257 22.0562 53.4828 22.0562 52.9043V36.6828C22.0561 34.3973 20.1739 32.5384 17.8615 32.5384ZM6.77762 6.24024C6.66187 5.21422 8.89638 4.14561 11.1241 4.14561C12.7848 4.14561 15.6038 5.02954 15.4719 6.23804L13.1153 25.142H9.13483L6.77762 6.24024ZM18.3989 51.9867L11.1239 57.4027L3.85081 51.9867V36.6832C3.85081 36.4135 4.09181 36.1957 4.38822 36.1957H17.8615C18.1579 36.1957 18.3989 36.4135 18.3989 36.6832V51.9867Z" fill="#2DA884"/>
</svg>
