<svg width="65" height="64" viewBox="0 0 65 64" fill="none" xmlns="http://www.w3.org/2000/svg">
<path d="M32.125 48C27.725 48 24.125 44.4 24.125 40V35C24.125 34.4 24.525 34 25.125 34C25.725 34 26.125 34.4 26.125 35V40C26.125 43.4 28.725 46 32.125 46C35.525 46 38.125 43.4 38.125 40V35C38.125 34.4 38.525 34 39.125 34C39.725 34 40.125 34.4 40.125 35V40C40.125 44.4 36.525 48 32.125 48Z" fill="white"/>
<path d="M32.125 38C24.325 38 18.125 31.8 18.125 24V19C18.125 18.4 18.525 18 19.125 18C19.725 18 20.125 18.4 20.125 19V24C20.125 30.6 25.525 36 32.125 36C38.725 36 44.125 30.6 44.125 24V19C44.125 18.4 44.525 18 45.125 18C45.725 18 46.125 18.4 46.125 19V24C46.125 31.8 39.925 38 32.125 38ZM57.125 64H7.125C6.525 64 6.125 63.6 6.125 63V54.2C6.125 49.4 9.125 45.2 13.725 43.8L24.925 40H25.725C25.925 40.2 26.125 40.4 26.125 40.8C26.525 43.8 29.125 45.8 32.125 45.8C35.125 45.8 37.525 43.6 38.125 40.8C38.125 40.6 38.325 40.2 38.525 40C38.725 39.8 39.125 39.8 39.325 40L50.525 43.8C55.125 45.2 58.125 49.4 58.125 54.2V63C58.125 63.6 57.725 64 57.125 64ZM8.125 62H56.125V54.2C56.125 50.4 53.725 46.8 49.925 45.6L39.725 42.2C38.725 45.6 35.725 47.8 32.125 47.8C28.525 47.8 25.525 45.4 24.525 42.2L14.325 45.6C10.525 46.8 8.125 50.4 8.125 54.2V62Z" fill="white"/>
<path d="M57.125 64H45.125C44.525 64 44.125 63.6 44.125 63V61C44.125 54.4 49.125 48.8 55.525 48.2C55.925 48.2 56.325 48.4 56.525 48.6C57.525 50.4 58.125 52.2 58.125 54.2V63C58.125 63.6 57.725 64 57.125 64ZM46.125 62H56.125V54.2C56.125 52.8 55.725 51.4 55.125 50.2C49.925 51.2 46.125 55.6 46.125 61V62ZM19.125 64H7.125C6.525 64 6.125 63.6 6.125 63V54.2C6.125 52.2 6.725 50.2 7.725 48.6C7.925 48.2 8.325 48 8.725 48C15.325 48.8 20.125 54.4 20.125 60.8V62.8C20.125 63.6 19.725 64 19.125 64ZM8.125 62H18.125V61C18.125 55.6 14.325 51.2 9.125 50.2C8.525 51.4 8.125 52.8 8.125 54.2V62ZM45.125 20H44.125C42.525 20 41.125 18.6 41.125 17V13C41.125 12.4 40.725 12 40.125 12H24.125C23.525 12 23.125 12.4 23.125 13V17C23.125 18.6 21.725 20 20.125 20H19.125C18.525 20 18.125 19.6 18.125 19C18.125 18.4 18.525 18 19.125 18H20.125C20.725 18 21.125 17.6 21.125 17V13C21.125 11.4 22.525 10 24.125 10H40.125C41.725 10 43.125 11.4 43.125 13V17C43.125 17.6 43.525 18 44.125 18H45.125C45.725 18 46.125 18.4 46.125 19C46.125 19.6 45.725 20 45.125 20Z" fill="white"/>
<path d="M45.125 20H44.925C44.325 19.8 44.125 19.4 44.125 18.8L45.925 10.6C46.325 8.6 45.925 6.4 44.525 4.8C43.325 3 41.325 2 39.125 2H29.125C27.525 2 26.125 3.4 26.125 5C26.125 5.6 25.725 6 25.125 6C24.525 6 24.125 5.6 24.125 5C24.125 2.2 26.325 0 29.125 0H39.125C41.925 0 44.525 1.2 46.125 3.4C47.725 5.6 48.525 8.4 47.925 11L46.125 19.2C45.925 19.6 45.525 20 45.125 20Z" fill="white"/>
<path d="M20.1251 20H19.1251C18.7251 20 18.3251 19.6 18.1251 19.2L15.9251 10.8C15.3251 8.6 15.9251 6.6 17.1251 4.8C18.3251 3 20.7251 2 22.7251 2H23.1251C24.7251 2 26.1251 3.4 26.1251 5C26.1251 5.6 25.7251 6 25.1251 6C24.5251 6 24.1251 5.6 24.1251 5C24.1251 4.4 23.7251 4 23.1251 4H22.7251C21.1251 4 19.7251 4.8 18.7251 6C17.7251 7.2 17.5251 8.8 17.9251 10.2L19.9251 18H20.1251C20.7251 18 21.1251 18.4 21.1251 19C21.1251 19.6 20.7251 20 20.1251 20ZM49.1251 26H45.1251C44.5251 26 44.1251 25.6 44.1251 25V19C44.1251 18.4 44.5251 18 45.1251 18H47.1251C48.7251 18 50.1251 19.4 50.1251 21V25C50.1251 25.6 49.7251 26 49.1251 26ZM46.1251 24H48.1251V21C48.1251 20.4 47.7251 20 47.1251 20H46.1251V24Z" fill="white"/>
<path d="M43.125 32H37.125C36.525 32 36.125 31.6 36.125 31C36.125 30.4 36.525 30 37.125 30H43.125C45.925 30 48.125 27.8 48.125 25V21C48.125 20.4 48.525 20 49.125 20C49.725 20 50.125 20.4 50.125 21V25C50.125 28.8 46.925 32 43.125 32ZM19.125 26H17.125C15.525 26 14.125 24.6 14.125 23V21C14.125 19.4 15.525 18 17.125 18H19.125C19.725 18 20.125 18.4 20.125 19V25C20.125 25.6 19.725 26 19.125 26ZM17.125 20C16.525 20 16.125 20.4 16.125 21V23C16.125 23.6 16.525 24 17.125 24H18.125V20H17.125Z" fill="white"/>
<path d="M35.125 34H33.125C31.525 34 30.125 32.6 30.125 31C30.125 29.4 31.525 28 33.125 28H35.125C36.725 28 38.125 29.4 38.125 31C38.125 32.6 36.725 34 35.125 34ZM33.125 30C32.525 30 32.125 30.4 32.125 31C32.125 31.6 32.525 32 33.125 32H35.125C35.725 32 36.125 31.6 36.125 31C36.125 30.4 35.725 30 35.125 30H33.125Z" fill="white"/>
</svg>
