<svg width="64" height="64" viewBox="0 0 64 64" fill="none" xmlns="http://www.w3.org/2000/svg">
<path d="M30.0544 42.0712C30.0544 40.5653 28.8309 39.2477 27.2309 39.2477H18.6662C18.9485 38.5888 19.1368 37.6477 19.325 36.5182C20.2662 36.7065 21.2073 36.6124 22.2426 36.2359C23.372 35.7653 24.3132 35.0124 25.1603 34.1653C26.6662 34.5418 32.6897 33.7888 33.0662 28.9888C33.1603 27.5771 35.4191 26.8241 35.4191 26.8241C35.7956 26.73 35.9838 26.3535 36.0779 26.0712C36.1721 25.7888 35.8897 25.3182 35.6073 25.13C33.9132 24.0947 32.125 23.6241 30.4309 23.6241C26.1956 23.6241 23.372 26.8241 23.2779 31.8124C23.2779 32.2829 23.372 32.7535 23.6544 33.13C22.525 34.2594 21.0191 35.1065 19.4191 34.73C19.4191 33.13 19.2309 31.2477 18.6662 29.1771C18.1956 27.6712 18.0073 26.0712 17.9132 24.5653C18.6662 24.4712 19.4191 24.1888 19.8897 23.6241C27.1368 16.0006 23.8426 7.34177 14.2426 4.8006C13.8662 4.70648 13.4897 4.8006 13.3015 5.08295C13.1132 5.3653 13.0191 5.74177 13.2073 6.11824C13.2073 6.11824 14.9015 9.6006 13.3015 11.3888C10.3838 14.683 11.0426 19.0124 15.0897 23.6241C15.372 23.9065 15.6544 24.0947 15.9368 24.2829C16.0309 26.0712 16.3132 27.9535 16.7838 29.7418C17.2544 31.4359 17.4426 32.9418 17.4426 34.2594C15.8426 34.6359 14.4309 33.7888 13.3015 32.6594C13.5838 32.2829 13.6779 31.8124 13.6779 31.3418C13.5838 26.3535 10.7603 23.1535 6.52499 23.1535C4.83087 23.1535 3.04264 23.7182 1.34852 24.6594C1.06616 24.8477 0.87793 25.2241 0.87793 25.6006C0.87793 25.9771 1.16028 26.2594 1.53675 26.3535C2.10146 26.5418 3.88969 27.3888 3.88969 28.5182C4.07793 31.6241 6.71322 33.6006 10.9485 33.7888C10.9485 33.7888 11.0426 33.7888 11.1368 33.7888C11.325 33.7888 11.6073 33.7888 11.7956 33.6947C13.3015 35.2947 15.1838 36.4241 17.3485 36.1418C17.1603 37.6477 16.7838 38.7771 16.5015 39.3418H7.08969C5.58381 39.3418 4.26617 40.5653 4.26617 42.1653C4.26617 43.4829 5.20734 44.7065 6.52499 44.8947L9.16028 62.3065C9.2544 62.7771 9.63087 63.1535 10.1015 63.1535C10.2897 63.1535 24.7838 63.1535 24.2191 63.1535C24.6897 63.1535 25.0662 62.7771 25.1603 62.3065L27.7956 44.8947C29.1132 44.6124 30.0544 43.4829 30.0544 42.0712ZM30.525 25.5065C31.372 25.5065 32.2191 25.6947 33.0662 25.9771C32.2191 26.6359 31.2779 27.5771 31.1838 28.8947C30.9956 31.2477 28.8309 32.0947 26.6662 32.3771C27.7015 30.8712 28.3603 29.4594 28.3603 29.3653C28.5485 28.8947 28.3603 28.33 27.8897 28.1418C27.4191 27.9535 26.8544 28.1418 26.6662 28.6124C26.6662 28.6124 26.1015 29.8359 25.2544 31.2477C25.5368 27.6712 27.5132 25.5065 30.525 25.5065ZM5.96028 28.33C5.86616 27.0124 4.92499 25.9771 4.07793 25.4124C4.92499 25.13 5.86616 24.9418 6.61911 24.9418C9.63087 24.9418 11.6073 27.1065 11.8897 30.6829C10.9485 29.3653 10.4779 28.1418 10.4779 28.1418C10.2897 27.6712 9.72499 27.4829 9.2544 27.6712C8.78381 27.8594 8.59558 28.4241 8.78381 28.8947C8.87793 28.9888 9.44264 30.4006 10.4779 31.9065C8.31322 31.6241 6.14852 30.7771 5.96028 28.33ZM14.8073 12.5182C16.2191 10.9182 16.0309 8.65942 15.6544 7.15354C22.4309 9.78883 24.4073 16.283 18.6662 22.3065C18.4779 22.4947 18.1956 22.5888 18.0073 22.6829C18.0073 18.6359 18.8544 15.4359 18.8544 15.4359C19.1368 14.2124 17.3485 13.7418 17.0662 14.9653C16.972 15.1535 16.3132 17.9771 16.2191 21.6477C13.9603 19.0124 12.2662 15.53 14.8073 12.5182ZM6.14852 42.0712C6.14852 41.6006 6.52499 41.13 7.08969 41.13H27.2309C27.7015 41.13 28.172 41.5065 28.172 42.0712C28.172 42.6359 27.7956 43.0124 27.2309 43.0124C18.1956 43.0124 16.125 43.0124 7.08969 43.0124C6.61911 43.0124 6.14852 42.6359 6.14852 42.0712ZM8.50146 44.8947H13.1132L13.8662 61.1771H10.9485L8.50146 44.8947ZM15.7485 61.1771L14.9015 44.8947H19.325L18.6662 61.1771H15.7485ZM23.4662 61.1771H20.5485L21.3956 44.8947H26.0073L23.4662 61.1771ZM59.7956 48.6594C59.8897 47.6241 59.7956 47.7182 59.7956 40.6594C59.7956 40.0947 59.4191 39.7182 58.8544 39.7182C56.5956 39.7182 54.8073 39.3418 53.3015 38.5888C53.4897 37.5535 53.6779 36.5182 53.6779 35.5771C53.6779 35.1065 53.3015 34.6359 52.6426 34.6359V10.8241L55.372 8.18883C56.6897 6.9653 56.5015 5.64766 56.5015 4.33001C56.5015 2.44766 54.9015 0.847656 52.8309 0.847656H47.1838C45.2073 0.847656 43.5132 2.35354 43.5132 4.33001C43.5132 5.55354 43.325 6.87119 44.6426 8.09472L47.372 10.8241V34.5418C46.6191 34.5418 46.3368 35.0124 46.3368 35.4829C46.3368 36.33 46.4309 37.2712 46.7132 38.3065C45.2073 39.0594 43.4191 39.4359 41.1603 39.6241C40.6897 39.6241 40.3132 40.0947 40.3132 40.5653V47.53C40.3132 48.8477 40.5015 50.1653 40.8779 51.4829C38.525 52.7065 38.3368 53.93 35.2309 54.3065C31.8426 54.7771 31.1838 54.5888 29.8662 56.6594L29.772 56.7535C29.0191 57.9771 28.0779 59.0124 27.0426 59.8594C26.6662 60.1418 26.572 60.6124 26.8544 61.0829C27.0426 61.4594 27.5132 61.6477 27.9838 61.4594C29.3015 60.9888 31.2779 62.4947 33.3485 62.2124C34.8544 62.0241 35.7956 61.0829 36.8309 60.8947C37.2073 60.8006 37.4897 60.8006 38.2426 60.8006C39.2779 60.8006 40.2191 60.6124 40.8779 60.7065C41.8191 60.9888 42.7603 62.1182 44.172 62.5888C47.4662 63.7182 50.3838 60.1418 51.9838 60.4241C52.5485 60.5182 54.8073 62.4006 58.8544 62.5888C60.7368 62.6829 61.772 62.0241 61.9603 60.1418C61.9603 59.0124 65.8191 52.7065 59.7956 48.6594ZM51.7956 36.5182C51.6073 38.4947 50.6662 41.5065 50.0073 43.4829C49.4426 41.6006 48.4073 38.4006 48.2191 36.5182C49.0662 36.5182 51.7956 36.5182 51.7956 36.5182ZM48.972 9.88295L45.9603 6.87119C45.3015 6.21236 45.3956 5.45942 45.3956 4.42413C45.3956 3.48295 46.2426 2.82413 47.1838 2.82413H52.925C53.8662 2.82413 54.7132 3.48295 54.7132 4.42413C54.7132 5.45942 54.9015 6.21236 54.1485 6.87119L51.1368 9.78883C50.9485 9.97707 50.8544 10.1653 50.8544 10.4477V34.73H49.3485V10.5418C49.2544 10.2594 49.1603 10.0712 48.972 9.88295ZM42.1015 47.6241V41.6006C44.0779 41.4124 45.6779 41.0359 47.0897 40.3771C47.6544 42.6359 48.7838 46.0241 49.0662 47.0594C49.3485 47.9065 50.572 47.9065 50.8544 47.0594C51.2309 45.93 52.2662 42.6359 52.8309 40.5653C54.2426 41.2241 55.9368 41.6006 57.9132 41.6947V47.53C57.2544 47.53 56.6897 48.0006 56.4073 48.1888C55.1838 49.4124 55.6544 48.4712 54.0544 48.0947C52.5485 47.7182 50.572 48.9418 49.3485 49.7888C45.4897 52.33 45.6779 50.8241 43.0426 50.9182C42.9485 50.9182 42.8544 50.9182 42.6662 50.9182C42.2897 49.8829 42.1015 48.7535 42.1015 47.6241ZM60.172 59.2006C59.6073 60.5182 60.4544 61.1771 58.7603 61.0829C52.3603 60.7065 53.8662 57.0359 48.4073 60.1418C45.3956 61.8359 44.7368 61.3653 43.325 60.33C40.8779 58.5418 40.3132 59.2006 38.1485 59.2006C36.5485 59.2006 36.2662 59.2006 34.4779 60.0476C32.3132 61.0829 32.4073 60.6124 29.772 59.9535C31.9368 57.4124 31.2779 57.0359 32.972 56.7535C37.1132 56.1888 37.3956 56.2829 40.0309 54.4006C45.1132 50.73 43.9838 55.6241 50.1956 51.4829C54.7132 48.4712 53.2073 51.1065 55.7485 50.8241C56.7838 50.73 57.3485 49.8829 57.725 49.6006C58.4779 50.6359 63.4662 51.6712 60.172 59.2006Z" fill="#2DA884"/>
</svg>
