<svg width="63" height="60" viewBox="0 0 63 60" fill="none" xmlns="http://www.w3.org/2000/svg">
<path d="M60.1133 0.824366L53.5251 1.48319C52.7722 1.57731 52.2074 2.0479 52.0192 2.6126C50.7016 2.89495 49.5722 3.6479 48.631 4.58907L10.8898 46.942L1.57215 39.7891C1.19568 39.5067 0.536858 39.5067 0.254505 39.9773C-0.0278484 40.3538 0.0662692 40.9185 0.44274 41.295C1.57215 42.2361 -3.69844 38.0008 11.6427 50.142C10.9839 51.0832 10.6074 52.2126 10.6074 53.4361C10.6074 56.6361 13.1486 59.1773 16.3486 59.1773C19.5486 59.1773 22.0898 56.6361 22.0898 53.4361C22.0898 52.1185 21.6192 50.895 20.8663 49.9538L51.6427 21.5302C54.1839 19.1773 54.1839 15.3185 51.831 12.8714L47.5957 8.63613L50.0427 5.90672C50.6074 5.2479 51.4545 4.77731 52.3016 4.49495C52.678 4.96554 53.1486 5.15378 53.7133 5.15378C53.9016 5.15378 53.1486 5.2479 60.4898 4.49495C61.5251 4.40084 62.278 3.45966 62.1839 2.42437C62.0898 1.48319 61.1486 0.730249 60.1133 0.824366ZM39.1251 30.6597L32.9133 25.1067L38.8427 18.4244L45.6192 24.542L39.1251 30.6597ZM30.5604 38.5655L25.0074 33.9538L31.6898 26.5185L37.7133 31.8832L30.5604 38.5655ZM23.5957 44.9655L18.7957 40.8244L23.6898 35.3655L29.1486 39.8832L23.5957 44.9655ZM16.3486 47.695C15.031 47.695 13.9016 48.1655 12.9604 48.8244L12.3016 48.1655L17.5722 42.2361L22.278 46.2832L19.6427 48.7302C18.7016 48.0714 17.5722 47.695 16.3486 47.695ZM16.3486 57.295C14.1839 57.295 12.4898 55.5067 12.4898 53.4361C12.4898 51.2714 14.278 49.5773 16.3486 49.5773C18.5133 49.5773 20.2074 51.3655 20.2074 53.4361C20.3016 55.6008 18.5133 57.295 16.3486 57.295ZM50.5133 14.095C52.2074 15.7891 52.1133 18.5185 50.4192 20.1185L47.031 23.3185L40.0663 17.1067L46.3722 10.0479L50.5133 14.095Z" fill="#2DA884"/>
</svg>
